<svg width="24" height="17" viewBox="0 0 24 17" fill="none" xmlns="http://www.w3.org/2000/svg">
<path d="M3.9 2.4H2.1C1.60125 2.4 1.2 2.80125 1.2 3.3V7.2H0.3C0.135 7.2 0 7.335 0 7.5V9.3C0 9.465 0.135 9.6 0.3 9.6H1.2V13.5C1.2 13.9988 1.60125 14.4 2.1 14.4H3.9C4.39875 14.4 4.8 13.9988 4.8 13.5V3.3C4.8 2.80125 4.39875 2.4 3.9 2.4ZM23.7 7.2H22.8V3.3C22.8 2.80125 22.3988 2.4 21.9 2.4H20.1C19.6013 2.4 19.2 2.80125 19.2 3.3V13.5C19.2 13.9988 19.6013 14.4 20.1 14.4H21.9C22.3988 14.4 22.8 13.9988 22.8 13.5V9.6H23.7C23.865 9.6 24 9.465 24 9.3V7.5C24 7.335 23.865 7.2 23.7 7.2ZM17.1 0H15.3C14.8013 0 14.4 0.40125 14.4 0.9V7.2H9.6V0.9C9.6 0.40125 9.19875 0 8.7 0H6.9C6.40125 0 6 0.40125 6 0.9V15.9C6 16.3988 6.40125 16.8 6.9 16.8H8.7C9.19875 16.8 9.6 16.3988 9.6 15.9V9.6H14.4V15.9C14.4 16.3988 14.8013 16.8 15.3 16.8H17.1C17.5988 16.8 18 16.3988 18 15.9V0.9C18 0.40125 17.5988 0 17.1 0Z" fill="black"/>
</svg>
